<svg width="341" height="70" viewBox="0 0 341 70" fill="none" xmlns="http://www.w3.org/2000/svg">
<g clip-path="url(#clip0)">
<path d="M131.8 51.6C123.6 51.6 120.7 43 120.7 34.8C120.7 25.9 123.3 18 131.8 18C139.1 18 142.1 26.6 142.1 34.8C142.2 43 139.2 51.6 131.8 51.6ZM146 34.8C146 23.7 141.4 14 131.8 14C126.7 14 122.3 17.3 120.6 22.6H120.5V15.1H117V69.1H120.8V47H120.9C122.5 52.7 127.1 55.6 131.8 55.6C141.4 55.7 146 46 146 34.8Z" fill="#808285"/>
<path d="M165.3 51.6C157.9 51.6 154.2 43.2 154.2 34.8C154.2 26.4 157.9 18 165.3 18C172.7 18 176.4 26.4 176.4 34.8C176.4 43.2 172.7 51.6 165.3 51.6ZM180.2 34.8C180.2 23.5 174.9 14 165.3 14C155.6 14 150.4 23.5 150.4 34.8C150.4 46.1 155.7 55.6 165.3 55.6C175 55.7 180.2 46.1 180.2 34.8Z" fill="#808285"/>
<path d="M233.5 32.1C234.1 24.9 237.6 18 243.9 18C250.1 18 253.7 24.8 253.9 32.1H233.5ZM253.8 41.5C252.6 47.5 249.5 51.6 243.9 51.6C236.5 51.6 233.6 43.1 233.5 36.1H257.8C258 25 254 14 243.9 14C233.9 14 229.7 24.5 229.7 34.8C229.7 46 233.9 55.6 243.9 55.6C251.8 55.6 256 50.4 257.6 41.5H253.8V41.5Z" fill="#808285"/>
<path d="M283.3 32.1C283.9 24.9 287.4 18 293.7 18C299.9 18 303.5 24.8 303.7 32.1H283.3ZM303.6 41.5C302.4 47.5 299.3 51.6 293.7 51.6C286.3 51.6 283.4 43.1 283.3 36.1H307.6C307.9 25 303.9 14 293.7 14C283.7 14 279.5 24.5 279.5 34.8C279.5 46 283.7 55.6 293.7 55.6C301.6 55.6 305.8 50.4 307.4 41.5H303.6V41.5Z" fill="#808285"/>
<path d="M325.6 51.6C318.3 51.6 315.3 43 315.3 34.8C315.3 26.6 318.3 18 325.6 18C333.8 18 336.7 26.6 336.7 34.8C336.7 43 333.8 51.6 325.6 51.6ZM340.5 54.5V0H336.7V22.6H336.6C335 16.9 330.4 14 325.7 14C316.1 14 311.5 23.7 311.5 34.8C311.5 45.9 316.1 55.6 325.7 55.6C330.3 55.6 335.3 52.1 336.9 47H337V54.5H340.5V54.5Z" fill="#808285"/>
<path d="M66 54.5H69.8V32.5C69.9 24.3 72.5 18 79.2 18C84.1 18 85.9 22.4 85.8 27.8V54.5H89.6V32.2C89.6 24.9 91.5 18 98.2 18C103.7 18 105.7 21.5 105.7 28V54.5H109.5V27.8C109.5 18.5 106 14 99.1 14C94.9 14 91 16.5 89.1 21.7C87.9 16.5 84.2 14 80.1 14C75.1 14 71.8 17.1 69.8 21.8H69.6V15.2H66V54.5Z" fill="#808285"/>
<path d="M192.9 54.5H197.1L204.8 21.4H205L212.7 54.5H216.9L227.1 15.1H223L214.9 48.9H214.8L207.1 15.1H202.8L195.1 48.9H194.9L186.9 15.1H182.8L192.9 54.5Z" fill="#808285"/>
<path d="M262.9 54.5H266.7V33.5C266.7 25.3 271.5 18.9 278.4 19.4V14.6C272.7 14.3 268.4 18 266.5 24.4H266.4V15.2H262.9V54.5Z" fill="#808285"/>
<path d="M57 32.8H36.6V36.9H57V32.8Z" fill="#ED3550"/>
<path d="M0 54.5H3.5V47H3.6C5.4 52.3 9.8 55.6 14.8 55.6C24.5 55.7 29 46 29 34.8C29 23.7 24.5 14 14.9 14C10.2 14 5.6 17 4 22.6H3.8V0H0V54.5ZM25.2 34.8C25.2 43 22.2 51.6 14.9 51.6C6.7 51.6 3.9 43 3.9 34.8C3.9 26.6 6.8 18 14.9 18C22.2 18 25.2 26.7 25.2 34.8Z" fill="#ED3550"/>
<path d="M57 15H36.6V19.1H57V15Z" fill="#ED3550"/>
<path d="M57 50.5H36.6V54.6H57V50.5Z" fill="#ED3550"/>
</g>
<defs>
<clipPath id="clip0">
<rect width="340.5" height="69.1" fill="white"/>
</clipPath>
</defs>
</svg>
