<svg width="351" height="491" viewBox="0 0 351 491" fill="none" xmlns="http://www.w3.org/2000/svg">
<path d="M129.515 139.008V100.471L0 22.021V312.423L129.515 391.905V158.62V136.943" fill="#0071AE"/>
<path d="M285.553 196.125L157.072 274.231L351 391.905V236.726L285.553 196.125Z" fill="#EF4148"/>
<path d="M157.072 117.331V274.231L285.553 196.125L157.072 117.331Z" fill="#026699"/>
<path d="M157.072 117.331L351 0V156.556L285.553 196.125L157.072 117.331Z" fill="#47C8F5"/>
<path d="M75.7803 220.898C75.7803 225.715 70.6135 227.436 65.4466 227.436C59.9353 227.436 55.113 225.715 55.113 220.898C55.113 216.425 60.2798 214.705 65.4466 214.705C70.6135 214.705 75.7803 216.425 75.7803 220.898ZM65.4466 212.296C58.5575 212.296 52.7018 215.049 52.7018 220.898C52.7018 223.995 54.7685 226.748 57.8686 227.78H53.3907V229.844H86.1139V227.436H72.6802C76.1247 226.404 77.847 223.651 77.847 220.898C78.1915 215.393 72.3357 212.296 65.4466 212.296Z" fill="white"/>
<path d="M75.7803 200.942C75.7803 205.415 70.6135 207.479 65.4466 207.479C60.2798 207.479 55.113 205.415 55.113 200.942C55.113 196.469 60.2798 194.404 65.4466 194.404C70.6135 194.06 75.7803 196.469 75.7803 200.942ZM65.4466 191.652C58.5575 191.652 52.7018 194.748 52.7018 200.598C52.7018 206.447 58.5575 209.544 65.4466 209.544C72.3357 209.544 78.1915 206.447 78.1915 200.598C78.1915 195.092 72.3357 191.652 65.4466 191.652Z" fill="white"/>
<path d="M64.0687 159.652C59.5908 159.308 55.4573 157.244 55.4573 153.459C55.4573 149.674 59.5908 147.61 64.0687 147.266V159.652ZM69.58 147.266C73.0246 147.954 75.7802 150.018 75.7802 153.115C75.7802 157.588 70.6134 159.308 66.4799 159.308V144.513C59.9353 144.169 53.0461 146.922 53.0461 152.771C53.0461 158.964 59.2463 161.373 65.791 161.373C72.6801 161.373 78.5358 158.964 78.5358 152.771C78.5358 147.954 75.4357 145.545 69.9245 144.513V147.266H69.58Z" fill="white"/>
<path d="M64.0687 129.373C59.5908 129.029 55.4573 126.965 55.4573 123.18C55.4573 119.395 59.5908 117.331 64.0687 116.987V129.373ZM69.58 116.987C73.0246 117.675 75.7802 119.739 75.7802 122.836C75.7802 127.309 70.6134 129.029 66.4799 129.029V114.234C59.9353 113.89 53.0461 116.643 53.0461 122.492C53.0461 128.685 59.2463 131.094 65.791 131.094C72.6801 131.094 78.5358 128.685 78.5358 122.492C78.5358 117.675 75.4357 115.266 69.9245 114.234V116.987H69.58Z" fill="white"/>
<path d="M75.7803 103.912C75.7803 108.385 70.6134 110.105 65.4466 110.105C60.6242 110.105 55.1129 108.385 55.1129 103.912C55.1129 99.0946 60.2798 97.3742 65.4466 97.3742C70.6134 97.0301 75.7803 98.7505 75.7803 103.912ZM77.5025 94.6216H44.4348V97.0301H58.213C54.7685 98.0624 53.0462 100.815 53.0462 103.568C53.0462 109.417 58.9019 112.17 65.7911 112.17C72.6802 112.17 78.5359 109.417 78.5359 103.568C78.5359 100.815 76.4692 97.7183 73.3691 96.6861H77.847V94.6216H77.5025Z" fill="white"/>
<path d="M77.5025 260.811V258.403H64.0687C58.9019 258.403 55.1129 256.683 55.1129 252.554C55.1129 249.457 57.8685 248.425 60.9686 248.425H77.158V246.016H63.7243C59.2463 246.016 55.1129 244.984 55.1129 240.855C55.1129 237.414 57.1796 236.382 61.3131 236.382H77.5025V233.973H61.3131C55.8018 233.973 53.0461 236.038 53.0461 240.167C53.0461 242.575 54.424 244.984 57.8685 246.36C54.7684 247.048 53.0461 249.457 53.0461 251.865C53.0461 254.962 54.7684 257.027 57.8685 258.059H53.7351V260.123H77.5025V260.811Z" fill="white"/>
<path d="M77.5024 184.082V181.673L57.524 176.856L77.5024 172.039V169.631L53.735 163.437V165.846L74.0578 170.663L53.735 175.48V178.233L74.0578 182.706L53.735 187.867V190.275L77.5024 184.082Z" fill="white"/>
<path d="M77.5023 141.76V139.352H64.7574C59.9351 139.352 55.8016 136.599 56.1461 132.126H53.3904C53.046 135.567 55.4572 138.32 59.2462 139.352H53.7349V141.416H77.5023V141.76Z" fill="white"/>
<path d="M66.8243 266.317H64.4131V278.704H66.8243V266.317Z" fill="#5BCBF5"/>
<path d="M77.5026 300.725V298.66H73.0247C76.1248 297.628 78.1915 294.875 78.1915 291.779C78.1915 285.929 72.3358 283.177 65.4467 283.177C58.5576 283.177 52.7018 285.929 52.7018 291.779C52.7018 294.531 54.4241 297.284 57.8687 298.316H44.0905V300.725H77.5026V300.725ZM65.4467 285.585C70.2691 285.585 75.7803 287.306 75.7803 291.779C75.7803 296.596 70.6135 298.316 65.4467 298.316C60.6243 298.316 55.113 296.596 55.113 291.779C55.4575 287.306 60.6243 285.585 65.4467 285.585Z" fill="#5BCBF5"/>
<path d="M56.1462 266.317H53.735V278.704H56.1462V266.317Z" fill="#5BCBF5"/>
<path d="M77.5026 266.317H75.0914V278.704H77.5026V266.317Z" fill="#5BCBF5"/>
<path d="M307.254 461.753C307.254 445.926 316.21 439.044 325.51 439.044C335.844 439.044 343.422 447.99 343.422 461.753C343.422 476.205 335.155 484.463 325.166 484.463C313.11 484.118 307.254 473.108 307.254 461.753ZM299.676 489.624H306.91V484.807C306.91 482.054 306.565 480.334 306.565 480.334H306.91C306.91 480.334 312.077 491 325.51 491C340.322 491 351 479.301 351 461.753C351 444.205 341.7 432.163 326.544 432.163C312.077 432.163 307.599 442.829 307.599 442.829H307.254C307.254 442.829 307.599 440.765 307.599 438.356V418.055C307.599 413.238 305.532 411.174 300.71 411.174H292.787V417.711H297.609C299.332 417.711 300.021 418.744 300.021 420.12V489.624H299.676ZM241.808 455.904C243.874 444.549 251.797 438.7 261.097 438.7C269.364 438.7 276.598 444.549 276.942 455.904H241.808ZM233.541 461.753C233.541 478.957 246.286 491 262.819 491C275.564 491 283.831 483.086 283.831 483.086L280.042 477.237C280.042 477.237 273.498 484.118 263.164 484.118C251.452 484.118 241.463 475.861 241.463 461.753H284.52C284.52 461.753 284.865 459.345 284.865 457.968C284.865 443.861 276.942 432.163 261.442 432.163C246.286 432.163 233.541 443.173 233.541 461.753ZM170.85 489.624H178.428V462.786C178.428 460.033 178.772 457.624 179.461 455.216C181.872 445.926 190.139 439.388 199.784 439.388C210.462 439.388 211.84 447.302 211.84 455.904V482.742C211.84 487.559 213.907 489.624 218.729 489.624H226.652V483.086H221.829C220.107 483.086 219.418 482.398 219.418 480.678V453.84C219.418 440.076 214.596 432.163 200.473 432.163C187.384 432.163 180.15 441.109 178.083 446.27H177.739C177.739 446.27 178.083 444.549 178.083 442.141V439.732C178.083 435.603 176.017 433.539 171.194 433.539H163.272V440.076H168.094C169.816 440.076 170.505 441.109 170.505 442.485V489.624H170.85ZM115.048 481.022C115.048 481.022 121.937 491 136.749 491C147.771 491 156.383 484.463 156.383 475.172C156.383 456.592 124.693 459.345 124.693 446.958C124.693 441.453 129.515 438.7 137.093 438.7C140.882 438.7 146.738 440.42 146.738 444.549V447.302H153.972V442.485C153.972 434.571 142.605 432.163 136.749 432.163C125.382 432.163 116.77 437.324 116.77 447.302C116.77 465.538 148.46 463.13 148.46 475.516C148.46 481.366 142.949 484.463 136.749 484.463C125.726 484.463 119.526 475.861 119.526 475.861L115.048 481.022ZM65.1021 473.796C65.1021 461.065 82.6693 461.065 91.6251 461.065H94.7252V463.474C94.7252 473.108 88.1806 484.463 77.5025 484.463C69.2355 484.463 65.1021 478.957 65.1021 473.796ZM57.1796 474.484C57.1796 485.495 66.8243 491 76.4691 491C90.5918 491 95.4141 478.957 95.0697 478.957H95.4141C95.4141 478.957 95.4141 480.678 95.4141 483.086C95.4141 487.559 97.4809 489.624 101.959 489.624H109.537V483.086H104.714C102.992 483.086 102.303 482.398 102.303 480.678V453.84C102.303 441.797 98.1698 432.163 80.2581 432.163C75.4357 432.163 62.002 433.883 62.002 441.797V447.302H69.2355V443.861C69.2355 439.732 77.5024 439.044 80.2581 439.044C90.5918 439.044 94.7252 443.173 94.7252 454.872V455.56H91.6251C81.9804 454.872 57.1796 455.56 57.1796 474.484ZM7.23356 489.624H14.8116V461.409H19.9784C22.0451 461.409 24.8008 461.753 25.8342 463.818L36.8567 483.774C39.2679 488.591 40.9902 489.28 46.5015 489.28H51.6683V482.742H48.5682C45.4681 482.742 44.4347 482.054 43.4014 480.334L33.0677 462.097C31.3454 458.657 29.6232 457.968 29.6232 457.968V457.624C29.6232 457.624 31.001 456.936 33.7566 453.495L49.946 432.851H40.6457L26.1786 451.775C24.4563 453.84 22.0451 454.528 19.634 454.528H14.8116V417.367C14.8116 412.55 12.7448 410.83 7.92247 410.83H0V417.367H4.82237C6.54465 417.367 7.23356 418.399 7.23356 419.776V489.624V489.624Z" fill="#58595B"/>
</svg>
